nColumns=19
nRows=64
DataType=double
version=3
OpenSimVersion=4.1
endheader
time	ground_force_calcn_l_vx	ground_force_calcn_l_vy	ground_force_calcn_l_vz	ground_force_calcn_l_px	ground_force_calcn_l_py	ground_force_calcn_l_pz	ground_force_calcn_l_mx	ground_force_calcn_l_my	ground_force_calcn_l_mz	ground_force_calcn_r_vx	ground_force_calcn_r_vy	ground_force_calcn_r_vz	ground_force_calcn_r_px	ground_force_calcn_r_py	ground_force_calcn_r_pz	ground_force_calcn_r_mx	ground_force_calcn_r_my	ground_force_calcn_r_mz
2.7175	0	0	0	0	8.18657e-19	0	0	0	0	-114.226	785.311	45.9139	0.0086213	8.18657e-19	-0.0877922	2.43726	-16.7563	-0.979673
2.7275	0	0	0	0	1.86434e-18	0	0	0	0	-123.317	799.121	48.4049	0.0181892	1.86434e-18	-0.0885675	2.84348	-18.4264	-1.11613
2.73749	0	0	0	0	2.93285e-18	0	0	0	0	-132.27	808.09	50.4457	0.0279737	2.93285e-18	-0.0892902	3.29881	-20.1538	-1.25812
2.74748	0	0	0	0	4.02909e-18	0	0	0	0	-140.822	811.546	52.0003	0.0380246	4.02909e-18	-0.0899609	3.81042	-21.9591	-1.40704
2.75747	0	0	0	0	5.14864e-18	0	0	0	0	-148.737	808.85	52.983	0.0483061	5.14864e-18	-0.0905508	4.38528	-23.8476	-1.56212
2.76746	-0.152547	7.91924	0.828522	-0.45587	-5.03996e-17	0.0921062	-0.00278634	0.144649	0.0151334	-155.842	799.449	53.1778	0.0587379	6.28417e-18	-0.0910624	5.00212	-25.6603	-1.70687
2.77745	0.155288	24.243	2.2801	-0.452619	-5.01075e-17	0.0857566	0.00213081	0.332654	0.0312868	-161.813	782.887	52.4154	0.0691995	7.42378e-18	-0.0914314	5.63634	-27.2698	-1.82575
2.78744	1.53795	49.3776	4.14102	-0.449115	-4.97752e-17	0.0793639	0.0143148	0.459594	0.0385435	-166.221	758.824	50.6075	0.0795567	8.55363e-18	-0.0915629	6.26196	-28.5868	-1.90651
2.79743	4.60832	83.4879	6.17484	-0.445189	-4.93848e-17	0.073306	0.0230541	0.417666	0.0308909	-168.816	727.163	47.6989	0.0896878	9.66227e-18	-0.0914331	6.83988	-29.4623	-1.93261
2.80742	9.96399	126.247	8.10387	-0.440696	-4.89217e-17	0.0682083	0.00756174	0.0958096	0.00615009	-169.322	688.143	43.6761	0.0995129	1.07429e-17	-0.0910051	7.33553	-29.8123	-1.89217
2.81741	18.3789	176.723	9.56892	-0.435577	-4.8378e-17	0.0650246	-0.0589798	-0.567122	-0.0307076	-167.328	642.195	38.6254	0.108942	1.17869e-17	-0.090154	7.72063	-29.6313	-1.7822
2.8274	29.9969	233.587	10.2994	-0.429839	-4.77577e-17	0.0640365	-0.220517	-1.71717	-0.0757138	-162.517	590.027	32.7183	0.117752	1.2772e-17	-0.08873	7.94759	-28.8541	-1.60002
2.83739	44.3223	295.284	9.80323	-0.423885	-4.71038e-17	0.064832	-0.518509	-3.45441	-0.114684	-154.889	532.801	26.3509	0.125582	1.36596e-17	-0.0866141	7.97675	-27.4391	-1.35707
2.84739	60.7616	360.112	7.81153	-0.418039	-4.645e-17	0.0670898	-0.966638	-5.72891	-0.124271	-144.388	472.054	19.7878	0.132084	1.44134e-17	-0.0836893	7.78233	-25.443	-1.06653
2.85738	78.5636	426.23	4.14365	-0.412305	-4.57962e-17	0.0702989	-1.54362	-8.37459	-0.0814147	-131.178	409.552	13.4429	0.13698	1.50039e-17	-0.0798829	7.33988	-22.9159	-0.75218
2.86737	96.8283	491.887	-1.01167	-0.406444	-4.51191e-17	0.074003	-2.22619	-11.309	0.0232595	-115.919	347.165	7.66976	0.139917	1.53924e-17	-0.0750844	6.68767	-20.0289	-0.442489
2.87736	114.627	555.613	-7.25949	-0.400261	-4.44001e-17	0.0778074	-2.98346	-14.4613	0.188947	-99.26	286.821	2.92133	0.140756	1.55603e-17	-0.0692454	5.86423	-16.9452	-0.172591
2.88735	131.318	616.193	-14.043	-0.39371	-4.36386e-17	0.0814015	-3.73831	-17.5416	0.399772	-82.0875	230.328	-0.552881	0.139082	1.54574e-17	-0.0621977	4.9695	-13.9438	0.0334709
2.89734	146.207	672.731	-20.8487	-0.386876	-4.28479e-17	0.0845059	-4.41621	-20.3199	0.629738	-65.3632	179.101	-2.7237	0.134431	1.5029e-17	-0.0541112	4.03128	-11.0461	0.167985
2.90733	158.718	724.659	-27.2028	-0.37978	-4.20337e-17	0.0869791	-4.96671	-22.6766	0.85125	-49.9724	134.162	-3.80017	0.126236	1.42108e-17	-0.045117	3.11077	-8.35154	0.236559
2.91732	168.421	771.38	-32.903	-0.372356	-4.11896e-17	0.088747	-5.3434	-24.4732	1.0439	-36.3898	96.0833	-3.96382	0.115023	1.30555e-17	-0.0354238	2.26662	-5.98478	0.246896
2.92731	175.006	811.936	-37.7567	-0.364583	-4.03135e-17	0.0897777	-5.53649	-25.6864	1.19447	-24.9592	65.0243	-3.54213	0.102492	1.17517e-17	-0.0256993	1.53841	-4.00791	0.218326
2.9373	178.256	845.344	-41.7919	-0.356482	-3.94062e-17	0.0900496	-5.55977	-26.3661	1.30348	-15.8995	40.7454	-2.78313	0.089775	1.04208e-17	-0.0166391	0.951304	-2.43788	0.166521
2.94729	178.166	870.866	-45.0614	-0.347999	-3.84605e-17	0.0896236	-5.43269	-26.5547	1.37403	-9.04013	22.7459	-1.91024	0.077375	9.12912e-18	-0.00823863	0.522372	-1.31434	0.110381
2.95728	174.883	887.839	-47.6715	-0.339071	-3.74685e-17	0.0885805	-5.16335	-26.2131	1.40748	-4.25491	10.4846	-1.07131	0.0655136	7.90201e-18	-0.000579152	0.235746	-0.580905	0.0593567
2.96728	168.53	895.731	-49.6265	-0.329661	-3.64258e-17	0.0869979	-4.76738	-25.3386	1.40384	-1.32771	3.19344	-0.395178	0.0541656	6.73616e-18	0.00641083	0.0698295	-0.167955	0.0207839
2.97727	159.499	894.465	-50.9235	-0.319752	-3.53293e-17	0.0849999	-4.29812	-24.1037	1.37227	0	0	0	0	-3.53293e-17	0	0	0	0
2.98726	148.232	884.447	-51.6673	-0.309419	-3.4187e-17	0.0826754	-3.78025	-22.5554	1.31763	0	0	0	0	-3.4187e-17	0	0	0	0
2.99725	135.252	866.414	-51.8682	-0.298777	-3.30111e-17	0.0800829	-3.25322	-20.8399	1.24759	0	0	0	0	-3.30111e-17	0	0	0	0
3.00724	121.083	841.252	-51.5083	-0.287961	-3.18162e-17	0.0772524	-2.7413	-19.0458	1.16614	0	0	0	0	-3.18162e-17	0	0	0	0
3.01723	106.316	810.019	-50.5748	-0.276995	-3.06056e-17	0.0742467	-2.25545	-17.1841	1.07292	0	0	0	0	-3.06056e-17	0	0	0	0
3.02722	91.4264	774.01	-48.9709	-0.265885	-2.93805e-17	0.0711582	-1.80568	-15.2868	0.967181	0	0	0	0	-2.93805e-17	0	0	0	0
3.03721	76.8103	734.626	-46.6611	-0.254713	-2.81509e-17	0.0680351	-1.39337	-13.3264	0.846452	0	0	0	0	-2.81509e-17	0	0	0	0
3.0472	62.8589	693.341	-43.7274	-0.243582	-2.69284e-17	0.0648976	-1.02919	-11.3521	0.715951	0	0	0	0	-2.69284e-17	0	0	0	0
3.05719	49.8656	651.682	-40.2855	-0.232528	-2.57159e-17	0.0617838	-0.725853	-9.486	0.586403	0	0	0	0	-2.57159e-17	0	0	0	0
3.06718	37.9786	611.063	-36.4888	-0.221532	-2.45105e-17	0.0587177	-0.483715	-7.7828	0.464739	0	0	0	0	-2.45105e-17	0	0	0	0
3.07717	27.3597	572.643	-32.5309	-0.210554	-2.33072e-17	0.0557215	-0.299033	-6.25883	0.355554	0	0	0	0	-2.33072e-17	0	0	0	0
3.08717	18.0266	537.359	-28.6314	-0.199588	-2.21046e-17	0.0528073	-0.164752	-4.91114	0.261674	0	0	0	0	-2.21046e-17	0	0	0	0
3.09716	9.83874	506.157	-24.9301	-0.188572	-2.08951e-17	0.0500143	-0.0729769	-3.75432	0.184914	0	0	0	0	-2.08951e-17	0	0	0	0
3.10715	2.76227	479.926	-21.5209	-0.177462	-1.96734e-17	0.0474217	-0.0159682	-2.77437	0.124408	0	0	0	0	-1.96734e-17	0	0	0	0
3.11714	-3.29274	459.313	-18.5484	-0.166414	-1.84564e-17	0.0450358	0.0141419	-1.9727	0.0796634	0	0	0	0	-1.84564e-17	0	0	0	0
3.12713	-8.52299	444.607	-16.1386	-0.155619	-1.72642e-17	0.0428381	0.0274649	-1.43272	0.0520059	0	0	0	0	-1.72642e-17	0	0	0	0
3.13712	-13.1381	435.883	-14.3551	-0.145085	-1.60982e-17	0.0408329	0.034042	-1.12942	0.0371955	0	0	0	0	-1.60982e-17	0	0	0	0
3.14711	-17.2535	433.15	-13.2792	-0.134725	-1.49497e-17	0.0390911	0.0398023	-0.999241	0.030634	0	0	0	0	-1.49497e-17	0	0	0	0
3.1571	-21.0831	436.253	-12.9306	-0.124537	-1.38183e-17	0.0376602	0.0519301	-1.07454	0.0318497	0	0	0	0	-1.38183e-17	0	0	0	0
3.16709	-24.8653	444.782	-13.3167	-0.114667	-1.27205e-17	0.036431	0.0752919	-1.34679	0.0403228	0	0	0	0	-1.27205e-17	0	0	0	0
3.17708	-28.7096	458.129	-14.3928	-0.105245	-1.16715e-17	0.035286	0.107521	-1.71576	0.0539032	0	0	0	0	-1.16715e-17	0	0	0	0
3.18707	-32.7711	475.498	-16.0624	-0.0963016	-1.06744e-17	0.034223	0.150625	-2.18552	0.0738274	0	0	0	0	-1.06744e-17	0	0	0	0
3.19706	-37.2489	495.999	-18.2452	-0.0877784	-9.72235e-18	0.0332381	0.20979	-2.79353	0.102759	0	0	0	0	-9.72235e-18	0	0	0	0
3.20706	-42.1935	518.79	-20.8815	-0.0795882	-8.80619e-18	0.0322759	0.282076	-3.46827	0.139599	0	0	0	0	-8.80619e-18	0	0	0	0
3.21705	-47.5621	543.205	-23.9188	-0.0717161	-7.92462e-18	0.0313163	0.364518	-4.16315	0.183315	0	0	0	0	-7.92462e-18	0	0	0	0
3.22704	-53.3944	568.66	-27.2186	-0.0641715	-7.07841e-18	0.0303987	0.462735	-4.92821	0.235886	0	0	0	0	-7.07841e-18	0	0	0	0
3.23703	-59.5666	594.505	-30.5987	-0.0568802	-6.25969e-18	0.0295534	0.576335	-5.75212	0.296057	0	0	0	0	-6.25969e-18	0	0	0	0
3.24702	-65.8667	620.068	-33.9412	-0.0497857	-5.46354e-18	0.0287423	0.691285	-6.50776	0.35622	0	0	0	0	-5.46354e-18	0	0	0	0
3.25701	-72.1596	644.846	-37.1882	-0.0428597	-4.68701e-18	0.0279782	0.804323	-7.18774	0.414516	0	0	0	0	-4.68701e-18	0	0	0	0
3.267	-78.3494	668.48	-40.2857	-0.0360275	-3.9217e-18	0.0272855	0.915318	-7.80953	0.470639	0	0	0	0	-3.9217e-18	0	0	0	0
3.27699	-84.31	690.619	-43.1988	-0.0291515	-3.15291e-18	0.0266325	1.01437	-8.30913	0.519744	0	0	0	0	-3.15291e-18	0	0	0	0
3.28698	-90.0308	710.907	-45.8827	-0.022128	-2.36889e-18	0.0259653	1.10327	-8.71174	0.562265	0	0	0	0	-2.36889e-18	0	0	0	0
3.29697	-95.6571	728.858	-48.2967	-0.0149014	-1.56269e-18	0.0251714	1.19237	-9.08524	0.60202	0	0	0	0	-1.56269e-18	0	0	0	0
3.30696	-101.215	743.872	-50.3977	-0.00733075	-7.18932e-19	0.0241319	1.2776	-9.38964	0.636153	0	0	0	0	-7.18932e-19	0	0	0	0
3.31695	-106.736	755.339	-52.1275	0.000717505	1.77101e-19	0.0227536	1.35743	-9.60621	0.662944	0	0	0	0	1.77101e-19	0	0	0	0
3.32694	-112.317	762.651	-53.4412	0.00930792	1.13347e-18	0.0209626	1.44498	-9.81161	0.687528	0	0	0	0	1.13347e-18	0	0	0	0
3.33694	-117.914	765.243	-54.3732	0.018466	2.15364e-18	0.0186795	1.54714	-10.0407	0.713425	0	0	0	0	2.15364e-18	0	0	0	0
3.34693	-123.337	762.502	-54.9016	0.0282474	3.24329e-18	0.0158405	1.65403	-10.2256	0.736265	0	0	0	0	3.24329e-18	0	0	0	0
